#Comment line ignore any data following # character 
#Hierarchical Translation and Rotation (.htr) file 
[Header]	
#Header keywords are followed by a single value 
FileType HTR		#Single word string
DataType HTRS		#Translation followed by rotation and scale data
FileVersion 1		#integer
NumSegments 84		#integer
NumFrames 2		#integer
DataFrameRate 30		#integer, data frame rate in this file
EulerRotationOrder ZYX
CalibrationUnits mm
RotationUnits Degrees
GlobalAxisofGravity Y
BoneLengthAxis Y
ScaleFactor 1.00
[SegmentNames&Hierarchy]
#CHILD	PARENT
MASTER GLOBAL
root MASTER
chest root
L_mid_tent01 root
R_mid_tent01 root
spine01 root
Bip01_Neck chest
L_humerus chest
R_humerus chest
weapon_bone chest
Bip01_Head Bip01_Neck
eye_left_bone Bip01_Head
eye_right_bone Bip01_Head
L_forearm L_humerus
L_front_hand L_forearm
L_weapon_bone L_forearm
L_front_hand01_01 L_front_hand
L_front_hand02_01 L_front_hand
L_front_hand03_01 L_front_hand
L_front_hand01_02 L_front_hand01_01
L_front_hand02_02 L_front_hand02_01
L_front_hand03_02 L_front_hand03_01
R_forearm R_humerus
R_front_hand R_forearm
R_weapon_bone R_forearm
R_front_hand01_01 R_front_hand
R_front_hand02_01 R_front_hand
R_front_hand03_01 R_front_hand
R_front_hand01_02 R_front_hand01_01
R_front_hand02_02 R_front_hand02_01
R_front_hand03_02 R_front_hand03_01
null_rope01_connect L_mid_tent01
Rope1_Seg01 null_rope01_connect
Rope1_Seg02 Rope1_Seg01
Rope1_Seg03 Rope1_Seg02
Rope1_Seg04 Rope1_Seg03
Rope1_Seg05 Rope1_Seg04
Rope1_Seg06 Rope1_Seg05
Rope1_Seg07 Rope1_Seg06
Rope1_Seg09 Rope1_Seg07
L_mid_hand01 Rope1_Seg09
L_mid_hand02 Rope1_Seg09
L_mid_hand03 Rope1_Seg09
null_rope02_connect R_mid_tent01
Rope2_Seg01 null_rope02_connect
Rope2_Seg02 Rope2_Seg01
Rope2_Seg03 Rope2_Seg02
Rope2_Seg04 Rope2_Seg03
Rope2_Seg05 Rope2_Seg04
Rope2_Seg06 Rope2_Seg05
Rope2_Seg07 Rope2_Seg06
Rope2_Seg09 Rope2_Seg07
R_mid_hand01 Rope2_Seg09
R_mid_hand02 Rope2_Seg09
R_mid_hand03 Rope2_Seg09
spine02 spine01
spine03 spine02
pelvis spine03
null_rope03_connect pelvis
null_rope04_connect pelvis
Rope3_Seg01 null_rope03_connect
Rope3_Seg02 Rope3_Seg01
Rope3_Seg03 Rope3_Seg02
Rope3_Seg04 Rope3_Seg03
Rope3_Seg05 Rope3_Seg04
Rope3_Seg06 Rope3_Seg05
Rope3_Seg07 Rope3_Seg06
Rope3_Seg08 Rope3_Seg07
Rope3_Seg09 Rope3_Seg08
R_rear_hand01 Rope3_Seg09
R_rear_hand02 Rope3_Seg09
R_rear_hand03 Rope3_Seg09
Rope4_Seg01 null_rope04_connect
Rope4_Seg02 Rope4_Seg01
Rope4_Seg03 Rope4_Seg02
Rope4_Seg04 Rope4_Seg03
Rope4_Seg05 Rope4_Seg04
Rope4_Seg06 Rope4_Seg05
Rope4_Seg07 Rope4_Seg06
Rope4_Seg08 Rope4_Seg07
Rope4_Seg09 Rope4_Seg08
L_rear_hand01 Rope4_Seg09
L_rear_hand02 Rope4_Seg09
L_rear_hand03 Rope4_Seg09
[BasePosition]
#SegmentName Tx, Ty, Tz, Rx, Ry, Rz, BoneLength
MASTER 0.000000 0.000000 0.000000 -90.000000 0.000000 0.000000 10.000000 
root 0.000000 0.000000 0.000000 0.000000 0.000000 0.000000 10.000000 
chest 0.000000 0.000000 0.000000 0.000000 0.000000 0.000000 10.000000 
L_mid_tent01 0.000000 0.000000 0.000000 0.000000 0.000000 0.000000 10.000000 
R_mid_tent01 0.000000 0.000000 0.000000 0.000000 0.000000 0.000000 10.000000 
spine01 0.000000 0.000000 0.000000 0.000000 0.000000 0.000000 10.000000 
Bip01_Neck 0.000000 0.000000 0.000000 0.000000 0.000000 0.000000 10.000000 
L_humerus 0.000000 0.000000 0.000000 0.000000 0.000000 0.000000 10.000000 
R_humerus 0.000000 0.000000 0.000000 0.000000 0.000000 0.000000 10.000000 
weapon_bone 0.000000 0.000000 0.000000 0.000000 0.000000 0.000000 10.000000 
Bip01_Head 0.000000 0.000000 0.000000 0.000000 0.000000 0.000000 10.000000 
eye_left_bone 0.000000 0.000000 0.000000 0.000000 0.000000 0.000000 10.000000 
eye_right_bone 0.000000 0.000000 0.000000 0.000000 0.000000 0.000000 10.000000 
L_forearm 0.000000 0.000000 0.000000 0.000000 0.000000 0.000000 10.000000 
L_front_hand 0.000000 0.000000 0.000000 0.000000 0.000000 0.000000 10.000000 
L_weapon_bone 0.000000 0.000000 0.000000 0.000000 0.000000 0.000000 10.000000 
L_front_hand01_01 0.000000 0.000000 0.000000 0.000000 0.000000 0.000000 10.000000 
L_front_hand02_01 0.000000 0.000000 0.000000 0.000000 0.000000 0.000000 10.000000 
L_front_hand03_01 0.000000 0.000000 0.000000 0.000000 0.000000 0.000000 10.000000 
L_front_hand01_02 0.000000 0.000000 0.000000 0.000000 0.000000 0.000000 10.000000 
L_front_hand02_02 0.000000 0.000000 0.000000 0.000000 0.000000 0.000000 10.000000 
L_front_hand03_02 0.000000 0.000000 0.000000 0.000000 0.000000 0.000000 10.000000 
R_forearm 0.000000 0.000000 0.000000 0.000000 0.000000 0.000000 10.000000 
R_front_hand 0.000000 0.000000 0.000000 0.000000 0.000000 0.000000 10.000000 
R_weapon_bone 0.000000 0.000000 0.000000 0.000000 0.000000 0.000000 10.000000 
R_front_hand01_01 0.000000 0.000000 0.000000 0.000000 0.000000 0.000000 10.000000 
R_front_hand02_01 0.000000 0.000000 0.000000 0.000000 0.000000 0.000000 10.000000 
R_front_hand03_01 0.000000 0.000000 0.000000 0.000000 0.000000 0.000000 10.000000 
R_front_hand01_02 0.000000 0.000000 0.000000 0.000000 0.000000 0.000000 10.000000 
R_front_hand02_02 0.000000 0.000000 0.000000 0.000000 0.000000 0.000000 10.000000 
R_front_hand03_02 0.000000 0.000000 0.000000 0.000000 0.000000 0.000000 10.000000 
null_rope01_connect 0.000000 0.000000 0.000000 0.000000 0.000000 0.000000 10.000000 
Rope1_Seg01 0.000000 0.000000 0.000000 0.000000 0.000000 0.000000 10.000000 
Rope1_Seg02 0.000000 0.000000 0.000000 0.000000 0.000000 0.000000 10.000000 
Rope1_Seg03 0.000000 0.000000 0.000000 0.000000 0.000000 0.000000 10.000000 
Rope1_Seg04 0.000000 0.000000 0.000000 0.000000 0.000000 0.000000 10.000000 
Rope1_Seg05 0.000000 0.000000 0.000000 0.000000 0.000000 0.000000 10.000000 
Rope1_Seg06 0.000000 0.000000 0.000000 0.000000 0.000000 0.000000 10.000000 
Rope1_Seg07 0.000000 0.000000 0.000000 0.000000 0.000000 0.000000 10.000000 
Rope1_Seg09 0.000000 0.000000 0.000000 0.000000 0.000000 0.000000 10.000000 
L_mid_hand01 0.000000 0.000000 0.000000 0.000000 0.000000 0.000000 10.000000 
L_mid_hand02 0.000000 0.000000 0.000000 0.000000 0.000000 0.000000 10.000000 
L_mid_hand03 0.000000 0.000000 0.000000 0.000000 0.000000 0.000000 10.000000 
null_rope02_connect 0.000000 0.000000 0.000000 0.000000 0.000000 0.000000 10.000000 
Rope2_Seg01 0.000000 0.000000 0.000000 0.000000 0.000000 0.000000 10.000000 
Rope2_Seg02 0.000000 0.000000 0.000000 0.000000 0.000000 0.000000 10.000000 
Rope2_Seg03 0.000000 0.000000 0.000000 0.000000 0.000000 0.000000 10.000000 
Rope2_Seg04 0.000000 0.000000 0.000000 0.000000 0.000000 0.000000 10.000000 
Rope2_Seg05 0.000000 0.000000 0.000000 0.000000 0.000000 0.000000 10.000000 
Rope2_Seg06 0.000000 0.000000 0.000000 0.000000 0.000000 0.000000 10.000000 
Rope2_Seg07 0.000000 0.000000 0.000000 0.000000 0.000000 0.000000 10.000000 
Rope2_Seg09 0.000000 0.000000 0.000000 0.000000 0.000000 0.000000 10.000000 
R_mid_hand01 0.000000 0.000000 0.000000 0.000000 0.000000 0.000000 10.000000 
R_mid_hand02 0.000000 0.000000 0.000000 0.000000 0.000000 0.000000 10.000000 
R_mid_hand03 0.000000 0.000000 0.000000 0.000000 0.000000 0.000000 10.000000 
spine02 0.000000 0.000000 0.000000 0.000000 0.000000 0.000000 10.000000 
spine03 0.000000 0.000000 0.000000 0.000000 0.000000 0.000000 10.000000 
pelvis 0.000000 0.000000 0.000000 0.000000 0.000000 0.000000 10.000000 
null_rope03_connect 0.000000 0.000000 0.000000 0.000000 0.000000 0.000000 10.000000 
null_rope04_connect 0.000000 0.000000 0.000000 0.000000 0.000000 0.000000 10.000000 
Rope3_Seg01 0.000000 0.000000 0.000000 0.000000 0.000000 0.000000 10.000000 
Rope3_Seg02 0.000000 0.000000 0.000000 0.000000 0.000000 0.000000 10.000000 
Rope3_Seg03 0.000000 0.000000 0.000000 0.000000 0.000000 0.000000 10.000000 
Rope3_Seg04 0.000000 0.000000 0.000000 0.000000 0.000000 0.000000 10.000000 
Rope3_Seg05 0.000000 0.000000 0.000000 0.000000 0.000000 0.000000 10.000000 
Rope3_Seg06 0.000000 0.000000 0.000000 0.000000 0.000000 0.000000 10.000000 
Rope3_Seg07 0.000000 0.000000 0.000000 0.000000 0.000000 0.000000 10.000000 
Rope3_Seg08 0.000000 0.000000 0.000000 0.000000 0.000000 0.000000 10.000000 
Rope3_Seg09 0.000000 0.000000 0.000000 0.000000 0.000000 0.000000 10.000000 
R_rear_hand01 0.000000 0.000000 0.000000 0.000000 0.000000 0.000000 10.000000 
R_rear_hand02 0.000000 0.000000 0.000000 0.000000 0.000000 0.000000 10.000000 
R_rear_hand03 0.000000 0.000000 0.000000 0.000000 0.000000 0.000000 10.000000 
Rope4_Seg01 0.000000 0.000000 0.000000 0.000000 0.000000 0.000000 10.000000 
Rope4_Seg02 0.000000 0.000000 0.000000 0.000000 0.000000 0.000000 10.000000 
Rope4_Seg03 0.000000 0.000000 0.000000 0.000000 0.000000 0.000000 10.000000 
Rope4_Seg04 0.000000 0.000000 0.000000 0.000000 0.000000 0.000000 10.000000 
Rope4_Seg05 0.000000 0.000000 0.000000 0.000000 0.000000 0.000000 10.000000 
Rope4_Seg06 0.000000 0.000000 0.000000 0.000000 0.000000 0.000000 10.000000 
Rope4_Seg07 0.000000 0.000000 0.000000 0.000000 0.000000 0.000000 10.000000 
Rope4_Seg08 0.000000 0.000000 0.000000 0.000000 0.000000 0.000000 10.000000 
Rope4_Seg09 0.000000 0.000000 0.000000 0.000000 0.000000 0.000000 10.000000 
L_rear_hand01 0.000000 0.000000 0.000000 0.000000 0.000000 0.000000 10.000000 
L_rear_hand02 0.000000 0.000000 0.000000 0.000000 0.000000 0.000000 10.000000 
L_rear_hand03 0.000000 0.000000 0.000000 0.000000 0.000000 0.000000 10.000000 
#Beginning of Data. Separated by tabs
#Fr	Tx	Ty	Tz	Rx	Ry	Rz	SF
[MASTER]
22 -0.000791 5307.240723 479.090790 0.001660 0.001660 0.001660 5328.820801
23 -0.000825 5532.204590 229.360321 0.001660 0.001660 0.001660 5536.957031
[root]
22 -148.657806 391.750641 1733.995850 -106.072517 -41.600685 -28.015360 1783.902832
23 -154.105667 410.489624 1738.944092 -109.459389 -37.115158 -25.200760 1793.370239
[chest]
22 -84.512650 -34.090519 0.000000 7.117965 -2.204446 -178.607300 91.129311
23 -84.512650 -34.090519 0.000000 7.267425 -1.631034 -178.925659 91.129311
[L_mid_tent01]
22 27.299326 22.178640 -249.918518 -24.332762 17.249575 15.831875 252.381485
23 27.299316 22.178698 -249.918549 -23.253004 20.706001 16.585373 252.381516
[R_mid_tent01]
22 23.228794 24.509907 226.238495 79.774040 -25.806076 175.885574 228.744751
23 23.228794 24.509907 226.238495 79.322937 -30.524494 177.282364 228.744751
[spine01]
22 -0.361383 -0.195265 0.000000 0.352722 0.143757 20.017544 0.410763
23 -0.361383 -0.195265 0.000000 0.329558 0.134248 20.143839 0.410763
[Bip01_Neck]
22 165.484543 71.581718 0.000119 175.896118 1.177290 24.871183 180.302734
23 165.484543 71.581718 0.000119 175.896118 1.177290 24.871183 180.302734
[L_humerus]
22 -13.983130 -135.272980 -120.471481 -17.375523 84.660500 72.698395 181.680161
23 -13.983130 -135.272980 -120.471481 -14.888199 83.687454 75.184532 181.680161
[R_humerus]
22 -13.983309 -135.273102 125.287651 82.141884 -29.340622 4.943150 184.909012
23 -13.983309 -135.273102 125.287651 80.739342 -32.783264 6.622914 184.909012
[weapon_bone]
22 235.964890 -300.705902 0.000000 0.000000 -89.951546 -128.212341 382.234833
23 235.964890 -300.705902 0.000000 0.000000 -89.951546 -128.212341 382.234833
[Bip01_Head]
22 237.098694 196.588760 -10.275269 -46.646385 5.844641 -62.456821 308.169617
23 236.453552 198.918167 -10.374757 -46.998684 5.842406 -62.452702 309.170410
[eye_left_bone]
22 -24.626970 125.451866 -64.772606 0.000000 -90.000000 -99.840431 143.318359
23 -24.626970 125.451866 -64.772606 0.000000 -90.000000 -99.840431 143.318359
[eye_right_bone]
22 -24.626970 125.451866 64.327362 0.000000 -89.960434 80.159386 143.117676
23 -24.626970 125.451866 64.327362 0.000000 -89.960434 80.159386 143.117676
[L_forearm]
22 322.776093 0.000000 -0.000119 0.000300 -0.002328 -104.687065 322.776093
23 322.776093 0.000000 -0.000119 0.000306 -0.002327 -104.960922 322.776093
[L_front_hand]
22 241.149185 -0.042021 -3.300071 -178.667953 -1.835447 -27.422342 241.171753
23 241.149185 -0.042021 -3.300071 -178.667953 -1.835447 -27.422342 241.171753
[L_weapon_bone]
22 156.183838 0.000000 0.000000 0.000014 0.000007 0.000001 156.183838
23 156.183838 0.000000 0.000000 0.000014 0.000007 0.000001 156.183838
[L_front_hand01_01]
22 86.095154 20.947098 -0.655860 -0.366594 -0.477154 75.385574 88.609184
23 86.095154 20.947098 -0.655860 -0.366594 -0.477154 75.385574 88.609184
[L_front_hand02_01]
22 86.935165 -11.437475 24.513514 154.403519 -59.888931 -61.371990 91.046425
23 86.935165 -11.437475 24.513514 154.403519 -59.888931 -61.371990 91.046425
[L_front_hand03_01]
22 86.637497 -14.123976 -20.424902 -153.913849 58.118122 -62.702866 90.126129
23 86.637497 -14.123976 -20.424902 -153.913849 58.118122 -62.702866 90.126129
[L_front_hand01_02]
22 71.020905 -0.000179 0.000030 0.000334 -0.002323 -106.379684 71.020905
23 71.020905 -0.000179 0.000030 0.000334 -0.002323 -106.379684 71.020905
[L_front_hand02_02]
22 71.020927 -0.000119 0.000060 0.000334 -0.002323 -106.379684 71.020927
23 71.020927 -0.000119 0.000060 0.000334 -0.002323 -106.379684 71.020927
[L_front_hand03_02]
22 71.020905 -0.000060 0.000060 0.000334 -0.002323 -106.379684 71.020905
23 71.020905 -0.000060 0.000060 0.000334 -0.002323 -106.379684 71.020905
[R_forearm]
22 322.776428 -0.000060 0.000030 -0.003006 -0.211009 -0.151659 322.776428
23 322.776428 -0.000060 0.000030 -0.001385 -0.211026 -1.031986 322.776428
[R_front_hand]
22 238.847015 -0.006795 2.210259 33.833553 0.475528 -2.526496 238.857239
23 238.847015 -0.006795 2.210259 74.477425 1.645855 -6.437503 238.857239
[R_weapon_bone]
22 155.664093 0.002503 -0.000030 0.003487 0.001180 -90.988930 155.664078
23 155.664093 0.002503 -0.000030 0.003487 0.001180 -90.988930 155.664078
[R_front_hand01_01]
22 87.624611 14.231146 22.918642 -154.633499 -59.950619 61.746059 91.683487
23 87.624611 14.231146 22.918642 -154.633499 -59.950634 61.746063 91.683487
[R_front_hand02_01]
22 89.356956 14.367283 -19.491137 154.602676 58.302864 63.744400 92.579636
23 89.356956 14.367283 -19.491137 154.602661 58.302849 63.744381 92.579636
[R_front_hand03_01]
22 87.286232 -22.307278 -0.143439 0.162155 -0.423168 -75.767921 90.091743
23 87.286232 -22.307278 -0.143439 0.162155 -0.423168 -75.767921 90.091743
[R_front_hand01_02]
22 71.020905 0.000060 0.000119 0.002323 -0.000334 106.381714 71.020905
23 71.020905 0.000060 0.000119 0.002323 -0.000334 106.381721 71.020905
[R_front_hand02_02]
22 71.020844 -0.000030 -0.000119 0.002323 -0.000334 106.381714 71.020836
23 71.020844 -0.000030 -0.000119 0.002323 -0.000334 106.381721 71.020836
[R_front_hand03_02]
22 71.020905 0.000000 0.000030 0.002323 -0.000334 106.381714 71.020905
23 71.020905 0.000000 0.000030 0.002323 -0.000334 106.381721 71.020905
[null_rope01_connect]
22 328.732483 0.000000 -0.000238 139.755707 -56.619652 -12.369464 328.732483
23 328.732483 0.000000 -0.000238 144.010040 -55.125755 -19.163132 328.732483
[Rope1_Seg01]
22 0.000000 0.000000 0.000000 28.940235 -33.124832 -101.692055 0.000000
23 0.000000 0.000000 0.000000 26.397837 -34.833820 -98.768120 0.000000
[Rope1_Seg02]
22 139.999863 -0.000179 0.000000 11.741285 -5.921897 -16.806379 139.999863
23 139.999863 -0.000179 0.000000 9.868273 -6.657411 -14.941795 139.999863
[Rope1_Seg03]
22 139.999924 0.000060 -0.000060 29.556284 -15.204285 -27.968573 139.999924
23 139.999924 0.000060 -0.000060 26.716875 -16.722490 -27.990946 139.999924
[Rope1_Seg04]
22 139.999924 -0.000060 -0.000119 21.832083 -21.698214 -15.669272 139.999924
23 139.999924 -0.000060 -0.000119 20.621048 -22.432577 -17.239019 139.999924
[Rope1_Seg05]
22 139.999832 0.000119 -0.000060 14.029590 -32.792507 -8.340451 139.999832
23 139.999832 0.000119 -0.000060 11.163897 -29.226929 -7.467326 139.999832
[Rope1_Seg06]
22 139.999954 0.000119 -0.000060 1.387834 -24.156178 -0.355990 139.999954
23 139.999954 0.000119 -0.000060 1.124263 -28.920218 -1.401706 139.999954
[Rope1_Seg07]
22 139.999985 0.000060 0.000000 -0.822775 -8.979162 0.011693 139.999985
23 139.999985 0.000060 0.000000 -1.576256 -10.829383 -0.544485 139.999985
[Rope1_Seg09]
22 121.602913 0.000119 -0.000089 -89.793175 -1.359789 0.847147 121.602913
23 121.602913 0.000119 -0.000089 -89.793175 -1.359789 0.847147 121.602913
[L_mid_hand01]
22 103.859421 1.038730 8.195221 114.520287 -53.310486 -20.623234 104.187431
23 103.859421 1.038730 8.195221 114.520287 -53.310486 -20.623234 104.187431
[L_mid_hand02]
22 105.572853 -4.139662 -10.864139 -155.067673 38.166626 -52.448818 106.211075
23 105.572853 -4.139662 -10.864139 -155.067673 38.166626 -52.448818 106.211075
[L_mid_hand03]
22 104.641464 17.579376 -3.913581 -10.970130 15.317461 57.626949 106.179977
23 104.641464 17.579376 -3.913581 -10.970130 15.317461 57.626949 106.179977
[null_rope02_connect]
22 328.732849 0.000179 -0.000119 -144.073471 -38.201443 112.255775 328.732849
23 328.732849 0.000179 -0.000119 -146.599976 -33.982670 111.901352 328.732849
[Rope2_Seg01]
22 0.000016 -0.000280 0.000087 -5.300368 48.097012 107.735924 0.000294
23 0.000019 -0.000301 0.000091 3.081304 42.592258 117.363876 0.000315
[Rope2_Seg02]
22 139.999741 -0.000060 -0.000119 -0.396120 1.053844 -1.836996 139.999756
23 139.999741 -0.000060 -0.000119 -0.495147 0.895180 -1.545356 139.999756
[Rope2_Seg03]
22 140.000107 0.000030 0.000000 -0.423657 1.279661 -2.204187 140.000107
23 140.000107 0.000030 0.000000 -0.587623 1.173653 -1.992735 140.000107
[Rope2_Seg04]
22 139.999802 0.000000 -0.000060 -0.576470 2.699764 -3.737756 139.999802
23 139.999802 0.000000 -0.000060 -0.908323 1.988709 -3.388133 139.999802
[Rope2_Seg05]
22 139.999985 -0.000060 0.000119 -0.383910 1.219350 -2.757622 139.999985
23 139.999985 -0.000060 0.000119 -1.095767 2.941486 -4.747723 139.999985
[Rope2_Seg06]
22 139.999893 -0.000030 -0.000119 -0.072933 -2.272928 1.017184 139.999893
23 139.999893 -0.000030 -0.000119 0.100003 -0.097840 0.669237 139.999893
[Rope2_Seg07]
22 139.999893 0.000060 -0.000060 -0.094027 -0.957643 0.205231 139.999893
23 139.999893 0.000060 -0.000060 0.079767 -0.191641 0.609837 139.999893
[Rope2_Seg09]
22 121.338966 0.000089 -0.000060 54.100483 0.545947 -1.506398 121.338966
23 121.338966 0.000089 -0.000060 136.879395 0.546403 -1.506368 121.338966
[R_mid_hand01]
22 104.680779 11.144459 -10.335981 -30.020454 38.652878 49.958229 105.778534
23 104.680779 11.144459 -10.335981 -32.074154 37.059322 46.609459 105.778534
[R_mid_hand02]
22 104.070427 2.443552 8.231699 65.242195 -53.678989 20.920412 104.424065
23 104.070427 2.443552 8.231699 66.859070 -50.858833 18.874340 104.424065
[R_mid_hand03]
22 106.028137 -11.221827 -5.996406 -172.708435 14.068862 -59.528896 106.788818
23 106.028137 -11.221827 -5.996406 -171.953873 13.656528 -56.375961 106.788818
[spine02]
22 129.756927 0.001550 0.000119 -0.356958 -15.201083 -3.708491 129.756927
23 129.756927 0.001550 0.000119 -0.365668 -15.141090 -3.657345 129.756927
[spine03]
22 78.566963 0.091737 -5.358228 1.274168 4.393831 7.791523 78.749519
23 78.569923 0.091087 -5.329525 1.320357 4.350547 8.391378 78.750526
[pelvis]
22 169.435242 0.051022 0.000000 -0.059042 -0.340166 8.735004 169.435257
23 169.435242 0.051022 0.000000 -0.058987 -0.326547 9.075672 169.435257
[null_rope03_connect]
22 -1.257226 -2.466202 137.391083 107.999130 -27.234621 -1.027615 137.418976
23 -1.257226 -2.466202 137.391083 110.605576 -24.930460 -7.346323 137.418976
[null_rope04_connect]
22 -1.259640 -2.480268 -137.844437 107.999130 -27.234621 -1.027615 137.872513
23 -1.259640 -2.480268 -137.844437 110.605576 -24.930460 -7.346323 137.872513
[Rope3_Seg01]
22 -0.000023 -0.000363 0.000000 50.225094 -55.798908 71.295784 0.000364
23 -0.000023 -0.000378 0.000000 14.136743 24.783316 91.823387 0.000379
[Rope3_Seg02]
22 139.999924 -0.000119 0.000060 -27.780937 31.310905 -24.687408 139.999924
23 139.999924 -0.000119 0.000060 -0.020138 4.043101 -0.197005 139.999924
[Rope3_Seg03]
22 139.999924 -0.000119 0.000119 -9.950136 25.175493 -7.170293 139.999924
23 139.999924 -0.000119 0.000119 0.094338 3.830502 -0.188179 139.999924
[Rope3_Seg04]
22 139.999924 0.000119 0.000000 -2.384293 16.074047 -0.624796 139.999924
23 139.999924 0.000119 0.000000 0.179376 5.931979 -1.445070 139.999924
[Rope3_Seg05]
22 139.999924 -0.000238 0.000060 -0.046363 12.564529 0.648362 139.999924
23 139.999924 -0.000238 0.000060 0.350903 3.226918 -0.072571 139.999924
[Rope3_Seg06]
22 139.999893 -0.000119 -0.000060 0.831036 6.700577 0.203917 139.999893
23 139.999893 -0.000119 -0.000060 -0.046433 -2.688709 2.892136 139.999893
[Rope3_Seg07]
22 139.999771 0.000060 -0.000119 0.973777 4.374342 0.053724 139.999771
23 139.999771 0.000060 -0.000119 -0.232023 -4.212944 3.390888 139.999771
[Rope3_Seg08]
22 139.999985 -0.000060 0.000000 0.901745 2.662827 -0.012002 139.999985
23 139.999985 -0.000060 0.000000 0.264020 -1.456091 1.541540 139.999985
[Rope3_Seg09]
22 90.185997 -0.000179 -0.000060 84.137192 -1.360003 -0.845525 90.185997
23 90.185997 -0.000179 -0.000060 89.795624 -1.358474 -0.848592 90.185997
[R_rear_hand01]
22 103.366196 -6.073594 -10.757982 -156.049316 6.070419 -2.795869 104.101845
23 103.366196 -6.073594 -10.757982 -156.049316 6.070419 -2.795869 104.101845
[R_rear_hand02]
22 100.509819 12.039542 -7.992327 -38.708435 1.958051 5.461186 101.543350
23 100.509819 12.039542 -7.992327 -38.708435 1.958051 5.461186 101.543350
[R_rear_hand03]
22 101.539970 5.215704 5.435467 84.307632 -2.361033 4.099037 101.819031
23 101.539970 5.215704 5.435467 84.307625 -2.361033 4.099038 101.819031
[Rope4_Seg01]
22 -0.000008 -0.000379 -0.000153 15.707287 -53.575493 -56.423714 0.000409
23 -0.000008 -0.000394 -0.000153 13.554615 -52.946068 -53.912209 0.000422
[Rope4_Seg02]
22 139.999985 0.000060 0.000119 -1.754043 -8.729924 6.140750 139.999985
23 139.999985 0.000060 0.000119 -3.291188 -3.039222 12.442088 139.999985
[Rope4_Seg03]
22 139.999924 0.000000 -0.000238 -1.932756 -17.874512 12.254527 139.999924
23 139.999924 0.000000 -0.000238 -12.733006 -8.417496 32.567963 139.999924
[Rope4_Seg04]
22 139.999985 0.000000 0.000119 3.150437 -29.078321 15.869964 139.999985
23 139.999985 0.000000 0.000119 -18.781303 -16.000626 38.440765 139.999985
[Rope4_Seg05]
22 139.999802 -0.000060 -0.000119 9.842804 -17.581053 20.960234 139.999802
23 139.999802 -0.000060 -0.000119 -9.581145 -23.940651 23.079830 139.999802
[Rope4_Seg06]
22 139.999924 0.000000 0.000060 8.911030 -4.745615 23.465843 139.999924
23 139.999924 0.000000 0.000060 -0.534670 -14.151875 9.977972 139.999924
[Rope4_Seg07]
22 139.999802 0.000000 0.000000 3.388691 -1.224020 12.121004 139.999802
23 139.999802 0.000000 0.000000 0.786847 -5.349341 4.189217 139.999802
[Rope4_Seg08]
22 139.999924 0.000000 0.000119 -0.234432 -0.467054 5.677673 139.999924
23 139.999924 0.000000 0.000119 -0.945480 -2.701283 2.186010 139.999924
[Rope4_Seg09]
22 90.185791 0.000060 0.000060 -135.617828 2.228885 0.850567 90.185791
23 90.185791 0.000060 0.000060 -135.617828 2.228885 0.850567 90.185791
[L_rear_hand01]
22 101.696655 -8.392275 -7.654577 -19.915020 -33.950905 119.950104 102.329041
23 101.696655 -8.392275 -7.654577 -19.915020 -33.950905 119.950104 102.329041
[L_rear_hand02]
22 102.726799 -1.568258 5.773216 77.862221 61.878510 165.399200 102.900848
23 102.726799 -1.568258 5.773216 77.862221 61.878510 165.399200 102.900848
[L_rear_hand03]
22 104.552910 9.721220 -10.420293 -173.099182 -23.740307 -117.327896 105.519653
23 104.552910 9.721220 -10.420293 -173.099182 -23.740307 -117.327896 105.519653
